<mxfile host="app.diagrams.net" agent="Mozilla/5.0 (Windows NT 10.0; Win64; x64) AppleWebKit/537.36 (KHTML, like Gecko) Chrome/131.0.0.0 Safari/537.36" version="24.8.6">
  <diagram name="第 1 页" id="FQmOe7GBnDUOK7SbYKWL">
    <mxGraphModel dx="1436" dy="736" grid="0" gridSize="10" guides="1" tooltips="1" connect="1" arrows="1" fold="1" page="1" pageScale="1" pageWidth="4681" pageHeight="3300" math="0" shadow="0">
      <root>
        <mxCell id="0" />
        <mxCell id="1" parent="0" />
        <mxCell id="_hWgJsVgFeEouT8aaZ2a-16" style="edgeStyle=orthogonalEdgeStyle;rounded=0;orthogonalLoop=1;jettySize=auto;html=1;entryX=0.5;entryY=0;entryDx=0;entryDy=0;" edge="1" parent="1" source="_hWgJsVgFeEouT8aaZ2a-1" target="_hWgJsVgFeEouT8aaZ2a-2">
          <mxGeometry relative="1" as="geometry" />
        </mxCell>
        <mxCell id="_hWgJsVgFeEouT8aaZ2a-1" value="客户端层&lt;div&gt;&lt;font style=&quot;font-size: 20px;&quot;&gt;输入自然语言&lt;/font&gt;&lt;/div&gt;" style="rounded=1;whiteSpace=wrap;html=1;fontSize=24;" vertex="1" parent="1">
          <mxGeometry x="473" y="283" width="245" height="81" as="geometry" />
        </mxCell>
        <mxCell id="_hWgJsVgFeEouT8aaZ2a-17" style="edgeStyle=orthogonalEdgeStyle;rounded=0;orthogonalLoop=1;jettySize=auto;html=1;" edge="1" parent="1" source="_hWgJsVgFeEouT8aaZ2a-2">
          <mxGeometry relative="1" as="geometry">
            <mxPoint x="595.5" y="565.9608082490809" as="targetPoint" />
          </mxGeometry>
        </mxCell>
        <mxCell id="_hWgJsVgFeEouT8aaZ2a-2" value="代理层&lt;div&gt;&lt;font style=&quot;font-size: 20px;&quot;&gt;生成promt并发送至LLM&lt;/font&gt;&lt;/div&gt;" style="rounded=1;whiteSpace=wrap;html=1;fontSize=24;" vertex="1" parent="1">
          <mxGeometry x="473" y="426" width="245" height="81" as="geometry" />
        </mxCell>
        <mxCell id="_hWgJsVgFeEouT8aaZ2a-12" style="edgeStyle=orthogonalEdgeStyle;rounded=0;orthogonalLoop=1;jettySize=auto;html=1;entryX=0.5;entryY=0;entryDx=0;entryDy=0;" edge="1" parent="1" source="_hWgJsVgFeEouT8aaZ2a-3" target="_hWgJsVgFeEouT8aaZ2a-5">
          <mxGeometry relative="1" as="geometry" />
        </mxCell>
        <mxCell id="_hWgJsVgFeEouT8aaZ2a-3" value="模型层&lt;div&gt;&lt;font style=&quot;font-size: 20px;&quot;&gt;代码生成&lt;/font&gt;&lt;/div&gt;" style="rounded=1;whiteSpace=wrap;html=1;fontSize=24;" vertex="1" parent="1">
          <mxGeometry x="473" y="568" width="245" height="81" as="geometry" />
        </mxCell>
        <mxCell id="_hWgJsVgFeEouT8aaZ2a-4" value="反馈层&lt;div&gt;&lt;span style=&quot;font-size: 20px;&quot;&gt;输出结果&lt;/span&gt;&lt;/div&gt;" style="rounded=1;whiteSpace=wrap;html=1;fontSize=24;" vertex="1" parent="1">
          <mxGeometry x="473" y="845" width="245" height="81" as="geometry" />
        </mxCell>
        <mxCell id="_hWgJsVgFeEouT8aaZ2a-13" style="edgeStyle=orthogonalEdgeStyle;rounded=0;orthogonalLoop=1;jettySize=auto;html=1;" edge="1" parent="1" source="_hWgJsVgFeEouT8aaZ2a-5">
          <mxGeometry relative="1" as="geometry">
            <mxPoint x="595.5" y="842.8235294117646" as="targetPoint" />
          </mxGeometry>
        </mxCell>
        <mxCell id="_hWgJsVgFeEouT8aaZ2a-5" value="后处理层&lt;div&gt;&lt;span style=&quot;font-size: 20px;&quot;&gt;语法检查与代码优化等&lt;/span&gt;&lt;/div&gt;" style="rounded=1;whiteSpace=wrap;html=1;fontSize=24;" vertex="1" parent="1">
          <mxGeometry x="473" y="711" width="245" height="81" as="geometry" />
        </mxCell>
      </root>
    </mxGraphModel>
  </diagram>
</mxfile>
